# xmcd
#
# Track frame offsets:
#	150
#	15959
#	30488
#	49728
#	71759
#	89032
#	105436
#	122583
#	137784
#	159966
#	183314
#	199895
#
# Disc length: 2864 seconds
#
# Revision: 4
# Processed by: cddbd v1.5.2PL0 Copyright (c) Steve Scherf et al.
# Submitted via: audiograbber 1.83.01
#
DISCID=990b2e0c
DTITLE=Moonclovers - Tabloïds
DYEAR=2011
DGENRE=Pop
TTITLE0=Fashion Victim
TTITLE1=No Way
TTITLE2=Black Jack
TTITLE3=Mono Velcros
TTITLE4=Déjeuner en Paix
TTITLE5=Broadway
TTITLE6=Ground Zero
TTITLE7=Taxe Carbone
TTITLE8=Zora
TTITLE9=In Memoria
TTITLE10=Le Syndrome de Zorro
TTITLE11=Pardon Mademoiselle
EXTD=
EXTT0=
EXTT1=
EXTT2=
EXTT3=
EXTT4=
EXTT5=
EXTT6=
EXTT7=
EXTT8=
EXTT9=
EXTT10=
EXTT11=
PLAYORDER=
